<?xml version="1.0" standalone="no"?>
<!DOCTYPE svg PUBLIC "-//W3C//DTD SVG 20010904//EN"
 "http://www.w3.org/TR/2001/REC-SVG-20010904/DTD/svg10.dtd">
<svg version="1.0" xmlns="http://www.w3.org/2000/svg"
 width="512.000000pt" height="512.000000pt" viewBox="0 0 512.000000 512.000000"
 preserveAspectRatio="xMidYMid meet">
<metadata>
Created by potrace 1.16, written by Peter Selinger 2001-2019
</metadata>
<g transform="translate(0.000000,512.000000) scale(0.100000,-0.100000)"
fill="#000000" stroke="none">
<path d="M740 4375 l-115 -115 850 -850 850 -850 -850 -850 -850 -850 118
-117 117 -118 850 850 850 850 850 -850 850 -850 117 118 118 117 -850 850
-850 850 850 850 850 850 -118 117 -117 118 -850 -850 -850 -850 -848 848
c-466 466 -849 847 -852 847 -3 0 -57 -52 -120 -115z"/>
</g>
</svg>
